PathFileType  4	(X/Y/Z) C:\Users\antoi\Documents\MyRepositories\mobilecap\ResultsAnalysis
DataRate	CameraRate	NumFrames	NumMarkers	Units	OrigDataRate	OrigDataStartFrame	OrigNumFrames
100.0	100.0	4	51	mm	100.0	123	140
Frame#	Time	r_knee			r_shank_antsup			r_ankle			r_calc			r_5meta			r_toe			L_knee			L_shank_antsup			L_ankle			L_calc			L_5meta			L_toe			r_sh2			r_sh3			r_sh4			L_sh2			L_sh3			r_thigh1			r_thigh2			r_thigh3			r_thigh4			r_thigh5			L_thigh1			L_thigh2			L_thigh3			L_thigh4			r.ASIS			r.PSIS			L.ASIS			L.PSIS			C7			R_Shoulder			L_Shoulder			R_Sternum			L_Sternum			R_humerus			R_elbow_med			R_elbow_lat			R_forearm			R_wrist_radius			R_wrist_ulna			L_humerus			L_elbow_med			L_elbow_lat			L_forearm			L_wrist_radius			L_wrist_ulna			R_HJC			L_HJC			R_HJC_reg			L_HJC_reg			
		X1	Y1	Z1	X2	Y2	Z2	X3	Y3	Z3	X4	Y4	Z4	X5	Y5	Z5	X6	Y6	Z6	X7	Y7	Z7	X8	Y8	Z8	X9	Y9	Z9	X10	Y10	Z10	X11	Y11	Z11	X12	Y12	Z12	X13	Y13	Z13	X14	Y14	Z14	X15	Y15	Z15	X16	Y16	Z16	X17	Y17	Z17	X18	Y18	Z18	X19	Y19	Z19	X20	Y20	Z20	X21	Y21	Z21	X22	Y22	Z22	X23	Y23	Z23	X24	Y24	Z24	X25	Y25	Z25	X26	Y26	Z26	X27	Y27	Z27	X28	Y28	Z28	X29	Y29	Z29	X30	Y30	Z30	X31	Y31	Z31	X32	Y32	Z32	X33	Y33	Z33	X34	Y34	Z34	X35	Y35	Z35	X36	Y36	Z36	X37	Y37	Z37	X38	Y38	Z38	X39	Y39	Z39	X40	Y40	Z40	X41	Y41	Z41	X42	Y42	Z42	X43	Y43	Z43	X44	Y44	Z44	X45	Y45	Z45	X46	Y46	Z46	X47	Y47	Z47	X48	Y48	Z48	X49	Y49	Z49	X50	Y50	Z50	X51	Y51	Z51	

123	1.22000000	1427.99042	537.33683	-118.28113	1484.53450	455.11531	-134.35858	1497.59518	117.23399	-167.42429	1419.88244	73.25452	-209.95497	1623.30015	47.74855	-139.14732	1673.76322	84.34309	-205.09038	1192.91528	528.06481	-425.42135	1140.90932	448.65607	-441.60734	931.01578	193.69896	-355.93542	842.18911	186.88506	-289.00005	980.61044	59.01312	-383.12142	1049.61622	60.80334	-327.37944	1496.44923	345.02887	-114.06051	1423.16228	455.55153	-89.89949	1417.04488	338.99999	-87.22534	1074.77796	506.05496	-417.68880	1010.71955	402.95056	-402.36874	1413.52762	866.67460	-99.96105	1443.43292	760.29639	-106.23146	1397.72252	721.19594	-72.43804	1308.98697	834.66498	-76.81360	1343.20974	724.27956	-87.65523	1321.12487	808.69757	-442.18004	1311.61673	668.72763	-431.69504	1210.53562	814.43144	-452.79116	1197.38797	677.53315	-444.83780	1371.97506	1071.22177	-137.69858	1186.55367	1059.83141	-191.12786	1359.11146	1051.91344	-390.64549	1179.39451	1060.57417	-300.98393	1269.20891	1603.54965	-334.26965	1333.76661	1558.01268	-154.62227	1312.11890	1503.54908	-490.39485	1378.45208	1505.30114	-291.57549	1375.09909	1493.88892	-345.88482	1308.44783	1405.74449	-71.43400	1188.00311	1222.40939	-105.13564	1200.86543	1242.92911	-23.87538	1241.81461	1076.55620	15.69912	1275.47652	983.93531	15.14377	1234.33909	993.82961	35.37271	1314.50659	1384.45679	-570.28815	1319.55822	1135.81446	-543.89432	1332.53165	1165.50996	-623.24262	1401.98019	1138.69904	-643.92214	1548.60016	1037.64287	-656.41245	1522.38608	1009.59054	-672.56245	1304.60640	945.99273	-145.31397	1284.51859	938.82199	-351.17167	1323.38342	970.52279	-170.73406	1312.48167	971.66596	-338.01760	
124	1.23000000	1437.53123	538.27295	-116.64769	1492.70005	454.96415	-133.59094	1498.95567	116.82259	-167.40067	1420.14167	73.40600	-209.96480	1623.40873	47.13528	-138.76159	1674.31882	82.44334	-205.17200	1218.04925	526.84554	-426.72119	1163.15663	450.21253	-442.65919	945.75672	203.40089	-356.81029	858.21234	204.21382	-289.19810	984.41429	64.43141	-382.71230	1054.01838	61.68852	-327.79607	1503.07303	344.63201	-113.52251	1432.18419	456.40311	-87.97517	1424.29706	339.88487	-84.82156	1099.57130	509.79017	-417.29562	1032.07302	408.99094	-401.95669	1427.78114	868.35936	-98.78613	1456.15959	761.59727	-105.44921	1410.32470	723.10372	-70.96856	1323.00205	837.66689	-74.49995	1355.80703	726.84600	-85.35779	1340.61411	809.12491	-441.18121	1334.15655	669.00473	-431.94987	1230.05576	812.59678	-452.72710	1219.52357	675.33764	-445.62994	1386.79429	1073.55845	-136.87496	1201.46303	1062.02233	-190.01553	1374.01452	1052.43759	-389.26544	1194.19957	1061.54918	-299.99000	1281.70094	1605.17206	-333.64661	1347.45725	1560.04501	-154.41717	1323.89879	1505.61415	-490.16671	1391.57272	1507.55002	-291.61661	1387.92376	1496.17133	-345.90719	1323.68103	1407.61435	-71.15785	1204.27246	1223.62348	-104.41909	1217.65860	1244.01627	-23.15492	1258.87258	1077.74029	16.27028	1292.88927	985.24950	15.76270	1251.45528	994.97460	35.84544	1325.16506	1386.00608	-569.77564	1328.53705	1137.46043	-541.90041	1340.87976	1166.45789	-621.52755	1410.06937	1139.03753	-642.64030	1555.78457	1036.67696	-655.70590	1529.19340	1008.69743	-671.39948	1319.42784	948.36453	-143.33483	1299.38100	939.57940	-349.12903	1338.08404	973.23427	-168.70691	1327.05345	972.52352	-335.71711	
125	1.24000000	1446.70096	539.32813	-115.04395	1500.40380	454.92686	-132.70308	1499.91898	116.48391	-167.31684	1420.24540	73.46761	-209.94859	1623.37406	46.87247	-138.41157	1674.64705	81.14286	-205.22757	1244.27966	525.53188	-428.14154	1187.02899	451.67864	-443.84570	962.35284	213.40656	-357.89294	876.95268	222.44259	-289.63184	989.17435	71.06778	-382.32843	1059.26398	63.30432	-328.50627	1509.14003	344.34626	-112.87611	1440.58204	457.30415	-86.10592	1430.89969	340.86629	-82.61258	1125.90727	513.30488	-417.33113	1055.09537	414.91544	-401.92281	1441.69038	870.15196	-97.34018	1468.64319	763.07284	-104.43686	1422.55655	725.09771	-69.63247	1336.63939	840.68818	-72.23274	1368.07844	729.47802	-83.19124	1360.31099	809.70919	-440.29584	1357.32256	669.47564	-432.35127	1249.84875	810.54621	-452.82383	1242.40420	673.01344	-446.68200	1401.11954	1075.97973	-135.86222	1215.95512	1064.04199	-189.16120	1388.61375	1052.94553	-387.78306	1208.54144	1062.36787	-299.21095	1294.26860	1606.78324	-333.11124	1361.35523	1562.02232	-154.38035	1335.64621	1507.56860	-490.03155	1404.70134	1509.70871	-291.82022	1400.72302	1498.33620	-346.06303	1339.23852	1409.42688	-71.08449	1220.74830	1224.84754	-103.57497	1234.87400	1245.11888	-22.34430	1276.36778	1078.94509	16.90696	1310.69130	986.54401	16.39428	1269.03486	996.14431	36.42011	1335.62079	1387.38019	-569.29421	1337.16629	1138.97737	-539.67013	1348.76839	1167.15548	-619.57768	1417.71475	1139.10068	-641.16522	1562.39495	1035.29526	-654.76427	1535.41876	1007.37032	-669.92569	1333.80809	950.73686	-141.34123	1314.06997	940.26706	-347.08154	1352.56485	975.87493	-166.52088	1341.32951	973.33962	-333.29729	
126	1.25000000	1455.40946	540.38977	-113.53836	1507.58441	454.91256	-131.73414	1500.56466	116.16758	-167.18616	1420.27687	73.47919	-209.90849	1623.28832	46.77590	-138.14217	1674.84282	80.26710	-205.28067	1271.38593	524.22165	-429.62840	1212.44636	452.99038	-445.11122	980.73769	223.53784	-359.09950	898.28794	241.05242	-290.32173	995.31758	78.90625	-382.04465	1065.62445	65.76682	-329.47917	1514.60046	344.08599	-112.17279	1448.26869	458.16054	-84.40316	1436.76146	341.84812	-80.75640	1153.65004	516.53340	-417.88375	1079.65471	420.62657	-402.31767	1455.20816	871.89031	-95.67284	1480.80185	764.53768	-103.18649	1434.31955	727.05414	-68.41886	1349.84515	843.63276	-70.12512	1379.89592	732.06274	-81.23180	1379.98630	810.47856	-439.56249	1380.79725	670.18748	-432.83791	1269.70485	808.36453	-452.97220	1265.78222	670.68917	-447.88216	1415.00201	1078.42690	-134.72808	1230.04226	1065.86182	-188.53537	1402.83444	1053.45858	-386.29311	1222.41017	1063.01008	-298.61284	1306.88560	1608.34665	-332.68751	1375.42017	1563.91363	-154.52541	1347.35072	1509.37095	-489.99670	1417.83056	1511.72953	-292.19922	1413.49009	1500.33734	-346.36796	1355.09299	1411.16652	-71.22862	1237.41792	1226.02864	-102.61336	1252.47303	1246.20472	-21.46160	1294.30434	1080.15089	17.58458	1328.85072	987.79194	17.00038	1287.10447	997.31840	37.08306	1345.91001	1388.56584	-568.85056	1345.46296	1140.34593	-537.23015	1356.26182	1167.61100	-617.41176	1424.94317	1138.87147	-639.49489	1568.46107	1033.48871	-653.57291	1541.10863	1005.60867	-668.12683	1347.79814	953.05595	-139.40656	1328.52929	940.89087	-345.09595	1366.81657	978.42291	-164.24474	1355.26527	974.10298	-330.84015	
